<?xml version="1.0" standalone="no"?>
<!DOCTYPE svg PUBLIC "-//W3C//DTD SVG 20010904//EN"
 "http://www.w3.org/TR/2001/REC-SVG-20010904/DTD/svg10.dtd">
<svg version="1.0" xmlns="http://www.w3.org/2000/svg"
 width="651.000000pt" height="651.000000pt" viewBox="0 0 651.000000 651.000000"
 preserveAspectRatio="xMidYMid meet">
<metadata>
Created by potrace 1.14, written by Peter Selinger 2001-2017
</metadata>
<g transform="translate(0.000000,651.000000) scale(0.100000,-0.100000)"
fill="#000000" stroke="none">
<path d="M182 6489 c-95 -47 -181 -164 -178 -242 l2 -44 486 -486 487 -486
-57 -42 c-31 -24 -59 -45 -62 -49 -3 -3 -16 -13 -29 -22 -54 -38 -198 -185
-246 -252 -11 -16 -25 -33 -31 -40 -32 -34 -108 -184 -138 -273 -9 -24 -13
-43 -10 -43 2 0 0 -8 -5 -17 -5 -10 -12 -52 -16 -93 -4 -41 -9 -79 -12 -84 -4
-5 -1 -6 5 -2 7 4 12 16 12 26 0 31 50 181 78 235 67 128 133 209 296 360 6 6
29 24 51 40 22 17 42 32 45 35 6 6 133 90 173 114 24 15 31 15 45 4 9 -7 260
-256 557 -553 297 -297 565 -560 595 -585 29 -25 58 -50 64 -55 6 -6 27 -22
46 -35 19 -13 40 -29 45 -35 29 -32 280 -215 295 -215 5 0 10 -4 10 -9 0 -5
14 -14 30 -21 17 -7 45 -33 61 -57 39 -57 73 -71 114 -48 41 24 97 90 101 120
3 29 -26 69 -64 87 -14 7 -59 60 -99 118 -40 58 -80 113 -87 122 -8 9 -23 29
-33 45 -9 15 -29 44 -44 63 -14 19 -65 87 -112 151 -69 93 -185 215 -581 610
-407 406 -493 496 -481 505 24 18 310 110 405 131 50 10 55 11 55 13 0 2 27 9
65 15 19 4 53 11 75 17 22 5 51 12 65 14 14 3 36 7 50 9 79 16 138 26 180 30
19 3 53 7 75 11 48 8 63 10 135 18 30 3 75 8 100 11 71 8 385 27 428 26 12 0
31 0 142 -1 103 0 129 0 143 1 54 4 505 -30 587 -45 14 -2 48 -7 75 -10 28 -3
61 -8 75 -10 14 -3 43 -8 65 -11 22 -4 54 -9 70 -11 17 -3 62 -12 100 -20 39
-8 81 -17 95 -20 135 -26 515 -139 537 -158 10 -9 -105 -129 -478 -501 -442
-441 -520 -522 -596 -622 -27 -35 -113 -154 -133 -183 -8 -13 -19 -28 -25 -34
-5 -6 -23 -31 -40 -56 -16 -25 -32 -47 -35 -50 -3 -3 -28 -38 -55 -79 -28 -41
-69 -86 -92 -103 -43 -29 -61 -53 -57 -75 1 -7 2 -19 3 -26 2 -21 90 -106 116
-113 29 -7 68 18 95 61 11 19 42 46 68 61 40 23 119 77 157 106 20 16 83 64
115 88 37 27 140 110 209 168 25 20 298 290 609 600 610 609 568 575 634 531
16 -11 41 -28 58 -39 16 -11 32 -20 35 -20 4 0 12 -6 19 -12 8 -7 39 -31 71
-53 89 -61 246 -224 309 -318 51 -76 87 -146 111 -217 1 -3 5 -12 8 -20 4 -8
9 -31 11 -50 3 -19 5 -35 6 -35 1 0 3 -8 5 -18 8 -44 13 -23 8 39 -10 140 -74
305 -174 450 -86 124 -268 299 -410 393 l-35 24 478 478 c536 535 511 503 465
601 -28 61 -63 101 -125 146 -46 33 -119 50 -147 35 -9 -5 -250 -243 -535
-528 l-519 -518 -73 31 c-138 59 -374 143 -405 144 -5 0 -24 6 -43 14 -35 13
-222 60 -276 70 -16 3 -37 7 -46 10 -21 6 -54 13 -98 20 -19 3 -73 11 -120 19
-91 15 -164 25 -220 31 -19 1 -57 6 -85 9 -81 9 -214 17 -307 19 -48 1 -90 5
-93 7 -3 3 -26 3 -50 -1 -25 -4 -48 -3 -51 2 -3 4 -9 6 -14 3 -5 -3 -78 -8
-162 -10 -84 -2 -182 -7 -218 -9 -164 -14 -197 -17 -224 -22 -16 -3 -54 -7
-84 -9 -30 -2 -78 -9 -106 -14 -28 -6 -68 -13 -90 -16 -64 -9 -235 -45 -341
-72 -55 -14 -107 -27 -115 -28 -8 -2 -16 -4 -17 -5 -2 -2 -6 -3 -10 -4 -5 -1
-14 -5 -20 -9 -7 -5 -13 -6 -13 -3 0 12 -335 -109 -451 -163 -25 -11 -50 -21
-55 -21 -4 0 -243 235 -530 522 -288 287 -531 526 -541 529 -33 13 -67 9 -111
-12z"/>
<path d="M380 4120 c0 -8 0 -132 0 -275 1 -143 1 -264 1 -270 -1 -19 -1 -140
0 -155 0 -16 1 -775 0 -800 0 -27 -1 -145 0 -160 0 -17 1 -775 0 -802 -4 -206
0 -297 15 -350 3 -9 7 -25 9 -36 14 -72 99 -237 169 -327 91 -117 263 -276
358 -333 15 -9 28 -20 28 -24 0 -4 4 -8 10 -8 5 0 40 -20 78 -44 93 -61 355
-191 442 -221 3 -1 19 -7 35 -14 152 -63 535 -173 680 -196 11 -2 45 -9 75
-15 93 -18 207 -36 295 -46 22 -2 56 -7 75 -10 19 -3 53 -7 75 -9 22 -2 87 -7
145 -11 206 -16 760 -9 929 12 25 3 62 7 81 9 19 2 53 6 75 9 22 3 59 8 83 11
24 3 53 7 65 10 12 3 40 8 62 11 79 11 93 13 345 69 8 2 15 4 15 5 0 1 7 3 15
5 8 1 35 8 60 16 25 7 52 14 61 15 41 8 357 118 378 133 14 9 25 15 26 13 0
-5 45 13 119 48 36 16 69 30 75 30 5 0 11 3 13 8 2 4 46 29 98 56 52 28 99 53
105 58 5 4 48 33 94 64 47 31 90 61 97 68 6 6 31 27 55 46 48 38 172 160 204
200 40 51 95 130 95 139 0 5 3 11 8 13 11 5 64 116 78 163 24 83 35 129 40
175 9 74 11 2731 2 2722 -3 -4 -9 -24 -12 -45 -19 -121 -113 -304 -215 -419
-85 -96 -250 -248 -269 -248 -5 0 -18 -9 -29 -20 -94 -87 -504 -293 -718 -360
-22 -7 -46 -18 -54 -24 -8 -6 -17 -10 -20 -9 -3 1 -35 -6 -71 -17 -116 -34
-187 -53 -325 -85 -30 -7 -67 -15 -95 -20 -14 -3 -36 -7 -50 -10 -14 -3 -38
-7 -55 -10 -37 -5 -80 -13 -120 -22 -16 -4 -33 -6 -36 -5 -4 1 -33 -3 -65 -8
-33 -5 -86 -12 -119 -16 -33 -3 -76 -7 -95 -9 -241 -27 -828 -27 -1065 -1 -16
2 -57 7 -90 10 -73 8 -142 16 -175 22 -14 2 -41 7 -60 9 -19 3 -46 8 -58 11
-13 3 -43 7 -65 10 -23 3 -58 10 -77 14 -19 5 -50 12 -69 15 -19 3 -37 7 -40
9 -3 2 -22 7 -41 10 -38 6 -277 72 -375 104 -80 26 -153 54 -225 85 -19 9 -55
23 -80 33 -25 10 -97 44 -160 77 -63 33 -125 65 -137 71 -13 6 -23 14 -23 19
0 4 -4 7 -10 7 -5 0 -47 25 -92 56 -299 204 -490 441 -554 689 -13 49 -23 83
-24 75z"/>
</g>
</svg>
